<svg viewBox="0 0 2000 2000" xmlns="http://www.w3.org/2000/svg" xmlns:xlink="http://www.w3.org/1999/xlink"><style>:root&gt;svg{display:none}:root&gt;svg:target{display:block}</style><svg viewBox="0 0 192.756 192.756" id="bmw" xmlns="http://www.w3.org/2000/svg"><g fill-rule="evenodd" clip-rule="evenodd"><path fill="#fff" d="M0 0h192.756v192.756H0V0z"/><path fill="#33a0d1" d="M41.517 65.083H63.49l-33.012 59.935H8.504l33.013-59.935z"/><path fill="#373485" d="M63.49 65.083h23.718l-33.012 59.935H30.478L63.49 65.083z"/><path fill="#c52b30" d="M87.208 65.083h23.626l-33.011 59.935H54.196l33.012-59.935z"/><path fill="#e6e6e7" d="M118.26 65.083h22.043l.687 26.952 14.844-26.952h19.463l1.498 59.935h-20.609V97.532l-13.793 27.486h-19.571l.315-26.782-14.117 26.782H85.248l33.012-59.935z"/></g></svg><svg fill="none" viewBox="0 0 150 68" id="footer-logo" xmlns="http://www.w3.org/2000/svg"><g clip-path="url(#bclip0)"><path fill-rule="evenodd" clip-rule="evenodd" d="M75 5c8.8 0 16 7.2 16 16s-7.2 16-16 16-16-7.2-16-16S66.2 5 75 5zm0-5C63.4 0 54 9.4 54 21s9.4 21 21 21 21-9.4 21-21S86.6 0 75 0z" fill="#00B2A0"/><path d="M0 67h150" stroke="#FCBB08" stroke-width="2" stroke-linecap="square"/></g><defs><clipPath id="bclip0"><path fill="#fff" d="M0 0h150v68H0z"/></clipPath></defs></svg><svg viewBox="0 0 256 262" preserveAspectRatio="xMidYMid" id="google" xmlns="http://www.w3.org/2000/svg"><path d="M255.878 133.451c0-10.734-.871-18.567-2.756-26.69H130.55v48.448h71.947c-1.45 12.04-9.283 30.172-26.69 42.356l-.244 1.622 38.755 30.023 2.685.268c24.659-22.774 38.875-56.282 38.875-96.027" fill="#4285F4"/><path d="M130.55 261.1c35.248 0 64.839-11.605 86.453-31.622l-41.196-31.913c-11.024 7.688-25.82 13.055-45.257 13.055-34.523 0-63.824-22.773-74.269-54.25l-1.531.13-40.298 31.187-.527 1.465C35.393 231.798 79.49 261.1 130.55 261.1" fill="#34A853"/><path d="M56.281 156.37c-2.756-8.123-4.351-16.827-4.351-25.82 0-8.994 1.595-17.697 4.206-25.82l-.073-1.73L15.26 71.312l-1.335.635C5.077 89.644 0 109.517 0 130.55s5.077 40.905 13.925 58.602l42.356-32.782" fill="#FBBC05"/><path d="M130.55 50.479c24.514 0 41.05 10.589 50.479 19.438l36.844-35.974C195.245 12.91 165.798 0 130.55 0 79.49 0 35.393 29.301 13.925 71.947l42.211 32.783c10.59-31.477 39.891-54.251 74.414-54.251" fill="#EB4335"/></svg><svg viewBox="0 0 3364.7 3364.7" id="instagram" xmlns="http://www.w3.org/2000/svg"><defs><radialGradient id="da" cx="217.76" cy="3290.99" r="4271.92" gradientUnits="userSpaceOnUse"><stop offset=".09" stop-color="#fa8f21"/><stop offset=".78" stop-color="#d82d7e"/></radialGradient><radialGradient id="db" cx="2330.61" cy="3182.95" r="3759.33" gradientUnits="userSpaceOnUse"><stop offset=".64" stop-color="#8c3aaa" stop-opacity="0"/><stop offset="1" stop-color="#8c3aaa"/></radialGradient></defs><path d="M853.2 3352.8c-200.1-9.1-308.8-42.4-381.1-70.6-95.8-37.3-164.1-81.7-236-153.5s-116.4-140.1-153.5-235.9c-28.2-72.3-61.5-181-70.6-381.1-10-216.3-12-281.2-12-829.2s2.2-612.8 11.9-829.3C21 653.1 54.5 544.6 82.5 472.1 119.8 376.3 164.3 308 236 236c71.8-71.8 140.1-116.4 236-153.5C544.3 54.3 653 21 853.1 11.9 1069.5 2 1134.5 0 1682.3 0c548 0 612.8 2.2 829.3 11.9 200.1 9.1 308.6 42.6 381.1 70.6 95.8 37.1 164.1 81.7 236 153.5s116.2 140.2 153.5 236c28.2 72.3 61.5 181 70.6 381.1 9.9 216.5 11.9 281.3 11.9 829.3 0 547.8-2 612.8-11.9 829.3-9.1 200.1-42.6 308.8-70.6 381.1-37.3 95.8-81.7 164.1-153.5 235.9s-140.2 116.2-236 153.5c-72.3 28.2-181 61.5-381.1 70.6-216.3 9.9-281.3 11.9-829.3 11.9-547.8 0-612.8-1.9-829.1-11.9" fill="url(#da)"/><path d="M853.2 3352.8c-200.1-9.1-308.8-42.4-381.1-70.6-95.8-37.3-164.1-81.7-236-153.5s-116.4-140.1-153.5-235.9c-28.2-72.3-61.5-181-70.6-381.1-10-216.3-12-281.2-12-829.2s2.2-612.8 11.9-829.3C21 653.1 54.5 544.6 82.5 472.1 119.8 376.3 164.3 308 236 236c71.8-71.8 140.1-116.4 236-153.5C544.3 54.3 653 21 853.1 11.9 1069.5 2 1134.5 0 1682.3 0c548 0 612.8 2.2 829.3 11.9 200.1 9.1 308.6 42.6 381.1 70.6 95.8 37.1 164.1 81.7 236 153.5s116.2 140.2 153.5 236c28.2 72.3 61.5 181 70.6 381.1 9.9 216.5 11.9 281.3 11.9 829.3 0 547.8-2 612.8-11.9 829.3-9.1 200.1-42.6 308.8-70.6 381.1-37.3 95.8-81.7 164.1-153.5 235.9s-140.2 116.2-236 153.5c-72.3 28.2-181 61.5-381.1 70.6-216.3 9.9-281.3 11.9-829.3 11.9-547.8 0-612.8-1.9-829.1-11.9" fill="url(#db)"/><path d="M1269.25 1689.52c0-230.11 186.49-416.7 416.6-416.7s416.7 186.59 416.7 416.7-186.59 416.7-416.7 416.7-416.6-186.59-416.6-416.7m-225.26 0c0 354.5 287.36 641.86 641.86 641.86s641.86-287.36 641.86-641.86-287.36-641.86-641.86-641.86S1044 1335 1044 1689.52m1159.13-667.31a150 150 0 10150.06-149.94h-.06a150.07 150.07 0 00-150 149.94M1180.85 2707c-121.87-5.55-188.11-25.85-232.13-43-58.36-22.72-100-49.78-143.78-93.5s-70.88-85.32-93.5-143.68c-17.16-44-37.46-110.26-43-232.13-6.06-131.76-7.27-171.34-7.27-505.15s1.31-373.28 7.27-505.15c5.55-121.87 26-188 43-232.13 22.72-58.36 49.78-100 93.5-143.78s85.32-70.88 143.78-93.5c44-17.16 110.26-37.46 232.13-43 131.76-6.06 171.34-7.27 505-7.27S2059.13 666 2191 672c121.87 5.55 188 26 232.13 43 58.36 22.62 100 49.78 143.78 93.5s70.78 85.42 93.5 143.78c17.16 44 37.46 110.26 43 232.13 6.06 131.87 7.27 171.34 7.27 505.15s-1.21 373.28-7.27 505.15c-5.55 121.87-25.95 188.11-43 232.13-22.72 58.36-49.78 100-93.5 143.68s-85.42 70.78-143.78 93.5c-44 17.16-110.26 37.46-232.13 43-131.76 6.06-171.34 7.27-505.15 7.27s-373.28-1.21-505-7.27M1170.5 447.09c-133.07 6.06-224 27.16-303.41 58.06-82.19 31.91-151.86 74.72-221.43 144.18S533.39 788.47 501.48 870.76c-30.9 79.46-52 170.34-58.06 303.41-6.16 133.28-7.57 175.89-7.57 515.35s1.41 382.07 7.57 515.35c6.06 133.08 27.16 223.95 58.06 303.41 31.91 82.19 74.62 152 144.18 221.43s139.14 112.18 221.43 144.18c79.56 30.9 170.34 52 303.41 58.06 133.35 6.06 175.89 7.57 515.35 7.57s382.07-1.41 515.35-7.57c133.08-6.06 223.95-27.16 303.41-58.06 82.19-32 151.86-74.72 221.43-144.18s112.18-139.24 144.18-221.43c30.9-79.46 52.1-170.34 58.06-303.41 6.06-133.38 7.47-175.89 7.47-515.35s-1.41-382.07-7.47-515.35c-6.06-133.08-27.16-224-58.06-303.41-32-82.19-74.72-151.86-144.18-221.43s-139.24-112.27-221.33-144.18c-79.56-30.9-170.44-52.1-303.41-58.06-133.3-6.09-175.89-7.57-515.3-7.57s-382.1 1.41-515.45 7.57" fill="#fff"/></svg><svg fill="none" viewBox="0 0 42 42" id="logo" xmlns="http://www.w3.org/2000/svg"><path fill-rule="evenodd" clip-rule="evenodd" d="M21 5c8.8 0 16 7.2 16 16s-7.2 16-16 16S5 29.8 5 21 12.2 5 21 5zm0-5C9.4 0 0 9.4 0 21s9.4 21 21 21 21-9.4 21-21S32.6 0 21 0z" fill="#00B2A0"/></svg><svg fill="none" viewBox="0 0 44 40" id="monitor" xmlns="http://www.w3.org/2000/svg"><path fill-rule="evenodd" clip-rule="evenodd" d="M43.658 30.83V.842H.34V30.83h20.825v6.664h-5.832v1.666h13.329v-1.666H22.83V30.83h20.828zM2.008 2.506h39.984v26.657H2.008V2.506z" fill="#00B2A0"/></svg><svg fill="none" viewBox="0 0 26 43" id="mouse" xmlns="http://www.w3.org/2000/svg"><path fill-rule="evenodd" clip-rule="evenodd" d="M13 14a3 3 0 100-6 3 3 0 000 6z" fill="#fff"/><rect x="1" y="1" width="24" height="41" rx="12" stroke="#fff" stroke-width="2"/></svg><svg fill="none" viewBox="0 0 35 35" id="next" xmlns="http://www.w3.org/2000/svg"><path fill-rule="evenodd" clip-rule="evenodd" d="M34.15 17.435L17.073 34.594l-1.642-1.65 14.27-14.34H0V16.27h29.705L15.432 1.925l1.641-1.65 17.076 17.16z" fill="#333"/></svg><svg fill="none" viewBox="0 0 55 65" id="play" xmlns="http://www.w3.org/2000/svg"><path fill-rule="evenodd" clip-rule="evenodd" d="M3.048 5.313l45.779 26.703L3.048 58.72V5.313zM0 .003v64.024l54.877-32.013L0 0v.003z" fill="#fff"/></svg><svg fill="none" viewBox="0 0 35 35" id="prev" xmlns="http://www.w3.org/2000/svg"><path fill-rule="evenodd" clip-rule="evenodd" d="M34.83 18.601H5.125l14.27 14.341-1.641 1.65L.68 17.435 17.756.275l1.642 1.65L5.125 16.268H34.83v2.333z" fill="#333"/></svg><svg viewBox="0 0 192.744 192.744" id="sony" xmlns="http://www.w3.org/2000/svg"><g fill-rule="evenodd" clip-rule="evenodd"><path fill="#fff" d="M0 0h192.744v192.744H0V0z"/><path d="M187.035 106.442a2.852 2.852 0 100 5.703 2.847 2.847 0 002.844-2.858 2.844 2.844 0 00-2.844-2.845zm0 5.36a2.505 2.505 0 01-2.508-2.515 2.502 2.502 0 012.508-2.501 2.5 2.5 0 012.5 2.501 2.503 2.503 0 01-2.5 2.515z"/><path d="M188.498 108.54c0-.269-.119-.552-.357-.687-.24-.142-.508-.156-.777-.156h-1.389v3.187h.389v-1.47h.717l.91 1.47h.463l-.963-1.47c.568-.016 1.007-.247 1.007-.874zm-1.537.567h-.598v-1.127h.91c.396 0 .83.06.83.553.001.649-.695.574-1.142.574zM170.32 93.132l5.83-6.225c.338-.457.506-.777.506-1.051 0-.457-.393-.64-1.629-.64h-1.471v-3.93h15.922v3.93h-2.092c-2.416 0-2.865.365-6.236 4.615l-9.223 9.96v6.078c0 1.555.785 2.102 3.033 2.102h3.482v3.792h-22.301v-3.792h3.482c2.246 0 3.033-.547 3.033-2.102v-6.078l-10.863-12.017c-1.795-2.101-1.547-2.558-6.545-2.558v-3.93h20.168v3.93h-1.436c-1.461 0-2.08.274-2.08.822 0 .458.449.823.73 1.188l5.496 5.99c.653.679 1.45.767 2.194-.084zM35.003 81.285h4.865v10.966h-4.493c-.398-2.192-1.77-3.045-3.021-4.195-2.257-2.074-7.145-3.801-11.256-3.801-5.306 0-9.784 1.646-9.784 4.066 0 6.718 30.345 1.372 30.345 14.074 0 6.625-6.5 10.326-18.173 10.326-4.041 0-10.156-1.254-13.764-3.17-1.131-.653-1.611.618-1.823 2.211H2.911V100.43h4.512c.995 2.879 2.366 3.472 3.627 4.615 2.188 2.011 7.396 3.474 12.172 3.427 7.201-.071 9.677-1.645 9.677-3.93 0-2.284-2.449-2.833-10.34-4.066l-6.7-1.097c-7.561-1.143-13.066-2.833-13.066-8.864 0-6.26 6.964-10.19 17.975-10.19 4.64 0 8.522.62 12.248 2.726 1.032.671 2 .751 1.987-1.766zm94.944 18.36l.096-12.188c0-1.599-.832-2.147-3.209-2.147h-2.793v-3.792h17.77v3.792h-2.316c-2.379 0-3.211.549-3.211 2.147v24.537l-6.955-.055-22.524-21.329v15.49c0 1.554.832 2.147 3.209 2.147h3.092v3.747H94.651v-3.747h3.058c2.377 0 3.209-.594 3.209-2.147V87.457c0-1.599-.832-2.147-3.209-2.147h-3.058v-3.792h15.956l19.34 18.127zm-59.523-19.55c-14.162 0-23.027 6.261-23.027 16.312 0 9.871 8.742 16.084 22.595 16.084 14.714 0 23.273-6.122 23.273-16.586.001-9.412-9.235-15.81-22.841-15.81zm-.322 28.422c-7.839 0-12.345-4.524-12.345-12.338 0-7.63 4.702-12.154 12.737-12.154 7.708 0 12.214 4.616 12.214 12.475 0 7.676-4.572 12.017-12.606 12.017z"/></g></svg><svg fill="none" viewBox="0 0 50 51" id="speaker" xmlns="http://www.w3.org/2000/svg"><path fill-rule="evenodd" clip-rule="evenodd" d="M.557 19.525v11.443h4.905v9.808h1.634v-9.808H19.67l11.939 9.661V9.572l-12.015 9.953H.558zm1.636 9.807V21.16h6.538v8.172H2.193zm18.444-8.548l9.336-7.736v24.155l-9.726-7.87h-9.883v-8.172h9.818l.453-.375.002-.002zm22.283-9.772l-1.175 1.176c3.825 2.994 6.298 7.642 6.298 12.865 0 5.363-2.608 10.117-6.61 13.098l1.184 1.184c4.291-3.285 7.061-8.46 7.061-14.282 0-5.681-2.64-10.746-6.756-14.04h-.001z" fill="#00B2A0"/><path fill-rule="evenodd" clip-rule="evenodd" d="M37.669 16.282L36.48 17.47c2.523 1.595 4.208 4.4 4.208 7.6 0 3.34-1.835 6.254-4.547 7.804l1.191 1.191c2.994-1.88 4.992-5.2 4.992-8.995a10.61 10.61 0 00-4.655-8.788h-.001z" fill="#00B2A0"/></svg><svg fill="none" viewBox="0 0 17 9" id="up-arrow" xmlns="http://www.w3.org/2000/svg"><path fill-rule="evenodd" clip-rule="evenodd" d="M16.354 7.896l-.707.707L8.5 1.457 1.354 8.603l-.707-.707L8.5.043l7.854 7.853z" fill="#fff"/></svg><svg fill="none" viewBox="0 0 50 55" id="vector" xmlns="http://www.w3.org/2000/svg"><path fill-rule="evenodd" clip-rule="evenodd" d="M45.39 16.795l-1.633 1.634a19.487 19.487 0 00-12.8-4.812c-3.178 0-6.354.817-9.078 2.269l6.899-6.899c.545.363 1.18.545 1.816.545.907 0 1.816-.363 2.541-1.09a3.618 3.618 0 000-5.174c-.727-.727-1.634-1.09-2.54-1.09-.908 0-1.817.363-2.542 1.09-1.18 1.272-1.362 3.086-.545 4.448l-8.715 8.715-1.634-1.634-4.447 4.447 1.633 1.634-8.896 8.897a3.277 3.277 0 00-1.817-.544c-.907 0-1.816.362-2.54 1.089a3.618 3.618 0 000 5.175c.726.634 1.633.999 2.54.999.908 0 1.817-.363 2.542-1.09 1.18-1.18 1.361-2.996.544-4.447l6.899-6.9c-3.63 6.992-2.814 15.706 2.541 21.878l-1.634 1.725 4.54 4.447 4.448-4.447-4.448-4.448-1.544 1.544c-5.265-6.174-5.537-15.07-1.09-21.605l.727.726 4.54-4.447-.817-.727c2.905-2.088 6.446-3.178 10.077-3.178 4.267 0 8.26 1.544 11.528 4.267l-1.634 1.544 4.54 4.448 4.447-4.448-4.447-4.54v-.001zM20.97 47.66l-1.906 1.906-1.907-1.906 1.907-1.907 1.906 1.907zm8.353-43.03a1.794 1.794 0 011.271-.545c.454 0 .907.182 1.271.545.727.727.727 1.816 0 2.541a1.794 1.794 0 01-1.27.545c-.455 0-.908-.182-1.272-.545-.727-.635-.727-1.816 0-2.541zM4.903 34.133a1.794 1.794 0 01-1.272.544c-.455 0-.908-.182-1.272-.544-.362-.273-.545-.727-.545-1.272 0-.454.183-.907.545-1.271a1.787 1.787 0 011.272-.545c.454 0 .907.182 1.271.545.727.727.727 1.906 0 2.541v.002zm12.164-12.8l-1.906-1.907 1.906-1.906 1.907 1.906-1.907 1.907zm28.324 1.906l-1.907-1.906 1.907-1.907 1.906 1.907-1.906 1.906z" fill="#00B2A0"/></svg></svg>